<mxfile host="app.diagrams.net" modified="2024-02-04T01:36:50.674Z" agent="Mozilla/5.0 (Windows NT 10.0; Win64; x64) AppleWebKit/537.36 (KHTML, like Gecko) Chrome/121.0.0.0 Safari/537.36" version="23.1.1" etag="0PBIzJXdnaj4f-6Ou-Yn" type="github">
  <diagram name="第 1 页" id="zWo01hbF4b2UpFMgGe-W">
    <mxGraphModel>
      <root>
        <mxCell id="0" />
        <mxCell id="1" parent="0" />
      </root>
    </mxGraphModel>
  </diagram>
</mxfile>
